<svg width="96" height="74" viewBox="0 0 96 74" fill="none" xmlns="http://www.w3.org/2000/svg">
<path d="M28.5909 26.0435C28.5909 32.9212 22.3552 38.587 14.5455 38.587C6.73572 38.587 0.5 32.9212 0.5 26.0435C0.5 19.1658 6.73572 13.5 14.5455 13.5C22.3552 13.5 28.5909 19.1658 28.5909 26.0435Z" fill="#D4A373" stroke="#FEFAE0"/>
<path d="M61.5909 13.0435C61.5909 19.9212 55.3552 25.587 47.5455 25.587C39.7357 25.587 33.5 19.9212 33.5 13.0435C33.5 6.16576 39.7357 0.5 47.5455 0.5C55.3552 0.5 61.5909 6.16576 61.5909 13.0435Z" fill="#D4A373" stroke="#FEFAE0"/>
<path d="M95.5 26.0435C95.5 32.9212 89.2643 38.587 81.4545 38.587C73.6448 38.587 67.4091 32.9212 67.4091 26.0435C67.4091 19.1658 73.6448 13.5 81.4545 13.5C89.2643 13.5 95.5 19.1658 95.5 26.0435Z" fill="#D4A373" stroke="#FEFAE0"/>
<path d="M14.8125 51.625C14.8958 52.7917 14.9583 54.1771 15 55.7812C15.0417 57.3646 15.0729 58.9688 15.0938 60.5938C15.1354 62.2188 15.1667 63.3229 15.1875 63.9062C14.7292 64.0312 14.3021 64.0938 13.9062 64.0938C13.5938 64.0938 13.3021 64.0417 13.0312 63.9375C12.9688 63.125 12.9271 62.1979 12.9062 61.1562C12.8854 60.1146 12.875 59.1979 12.875 58.4062C12.875 57.5938 12.8542 56.75 12.8125 55.875C12.7917 55 12.7396 54.25 12.6562 53.625C12.5729 53 12.4479 52.4271 12.2812 51.9062C12.1146 51.3646 11.875 50.9479 11.5625 50.6562C11.2708 50.3646 10.9062 50.2083 10.4688 50.1875C10.0312 50.1875 9.67708 50.2812 9.40625 50.4688C9.13542 50.6562 8.84375 51 8.53125 51.5V63.875C8.21875 64.0417 7.84375 64.125 7.40625 64.125C7.07292 64.125 6.69792 64.0729 6.28125 63.9688C6.34375 62.6562 6.38542 60.0729 6.40625 56.2188C6.42708 52.3646 6.51042 49.5104 6.65625 47.6562L8.0625 47.9688L8.15625 49.5625C8.78125 48.5833 9.57292 48.0938 10.5312 48.0938C11.9479 48.0938 13.1458 48.7188 14.125 49.9688C14.7292 48.7188 15.7083 48.0938 17.0625 48.0938C17.6042 48.0938 18.0729 48.1562 18.4688 48.2812C20.7396 48.9271 21.875 51.8333 21.875 57C21.875 57.75 21.8438 58.7604 21.7812 60.0312C21.7396 61.2812 21.7188 62.125 21.7188 62.5625C21.7188 63.1458 21.75 63.625 21.8125 64C20.7292 64.2917 20.0729 64.4375 19.8438 64.4375C19.6354 64.4375 19.4896 64.4167 19.4062 64.375C19.3229 64.1042 19.2812 63.6042 19.2812 62.875C19.2812 62.4167 19.3125 61.4792 19.375 60.0625C19.4375 58.625 19.4688 57.5 19.4688 56.6875C19.4688 52.3542 18.6146 50.1667 16.9062 50.125C16.5104 50.1458 16.1667 50.2708 15.875 50.5C15.5833 50.7083 15.2292 51.0833 14.8125 51.625ZM37 60.9688L37.3125 62.3438C36.3958 62.6771 35.0312 63.0521 33.2188 63.4688C31.4271 63.8646 30.0938 64.0625 29.2188 64.0625C28.3229 64.0625 27.5417 63.7708 26.875 63.1875C26.2083 62.5833 25.7083 61.8229 25.375 60.9062C25.0417 59.9688 24.7917 59.0521 24.625 58.1562C24.4792 57.2396 24.4062 56.3438 24.4062 55.4688C24.4062 50.2604 26.7604 47.6562 31.4688 47.6562C32.5938 47.6562 33.5833 48.0208 34.4375 48.75C35.2917 49.4583 35.7188 50.3854 35.7188 51.5312C35.7188 52.1562 35.5417 52.7083 35.1875 53.1875C34.8542 53.6667 34.4375 54.0521 33.9375 54.3438C33.4583 54.6146 32.8333 54.8646 32.0625 55.0938C31.3125 55.3229 30.6458 55.4896 30.0625 55.5938C29.4792 55.6979 28.7812 55.8125 27.9688 55.9375C27.1562 56.0625 26.5938 56.1562 26.2812 56.2188C26.3021 56.8229 26.3333 57.3542 26.375 57.8125C26.4375 58.2708 26.5417 58.7708 26.6875 59.3125C26.8542 59.8333 27.0625 60.2708 27.3125 60.625C27.5833 60.9583 27.9479 61.2396 28.4062 61.4688C28.8646 61.6979 29.4062 61.8125 30.0312 61.8125C30.7812 61.8125 31.6979 61.75 32.7812 61.625C33.8646 61.4792 34.8229 61.3333 35.6562 61.1875C36.5104 61.0417 36.9583 60.9688 37 60.9688ZM26.4062 54.2812C29.2396 53.4688 31.5625 52.6146 33.375 51.7188C33.2292 51.0312 33.0312 50.5312 32.7812 50.2188C32.5312 49.9062 32.1562 49.75 31.6562 49.75C30.3854 49.75 29.2292 50.1875 28.1875 51.0625C27.1667 51.9375 26.5729 53.0104 26.4062 54.2812ZM48.875 52.0938L47.5 52C47.0625 50.8333 46.3229 50.25 45.2812 50.25C44.8229 50.25 44.3333 50.3542 43.8125 50.5625C43.3125 50.7708 42.8958 50.9896 42.5625 51.2188C42.2292 51.4271 41.7917 51.7396 41.25 52.1562C41.25 52.4479 41.2396 53.3958 41.2188 55C41.2188 56.6042 41.2292 58.3854 41.25 60.3438C41.2917 62.3021 41.3333 63.3542 41.375 63.5C41.1875 64.125 40.8229 64.4375 40.2812 64.4375C39.9062 64.4375 39.5417 64.2917 39.1875 64C38.8542 63.6875 38.6458 63.3125 38.5625 62.875C38.9583 56.1875 39.3125 51.1354 39.625 47.7188L41.0312 48.0312L41.125 50.125C42.5833 48.9167 43.8333 48.3125 44.875 48.3125C46.0208 48.3125 46.9792 48.5729 47.75 49.0938C48.5417 49.6146 48.9375 50.375 48.9375 51.375C48.9375 51.6875 48.9167 51.9271 48.875 52.0938ZM60.5 52.0938L59.125 52C58.6875 50.8333 57.9479 50.25 56.9062 50.25C56.4479 50.25 55.9583 50.3542 55.4375 50.5625C54.9375 50.7708 54.5208 50.9896 54.1875 51.2188C53.8542 51.4271 53.4167 51.7396 52.875 52.1562C52.875 52.4479 52.8646 53.3958 52.8438 55C52.8438 56.6042 52.8542 58.3854 52.875 60.3438C52.9167 62.3021 52.9583 63.3542 53 63.5C52.8125 64.125 52.4479 64.4375 51.9062 64.4375C51.5312 64.4375 51.1667 64.2917 50.8125 64C50.4792 63.6875 50.2708 63.3125 50.1875 62.875C50.5833 56.1875 50.9375 51.1354 51.25 47.7188L52.6562 48.0312L52.75 50.125C54.2083 48.9167 55.4583 48.3125 56.5 48.3125C57.6458 48.3125 58.6042 48.5729 59.375 49.0938C60.1667 49.6146 60.5625 50.375 60.5625 51.375C60.5625 51.6875 60.5417 51.9271 60.5 52.0938ZM62.5 47.9375L63.9375 48.25C64.1042 49.9583 64.25 52.6458 64.375 56.3125C64.5 59.9583 64.5833 62.2188 64.625 63.0938C64.4375 63.7396 64.0729 64.0625 63.5312 64.0625C63.1562 64.0625 62.7917 63.9167 62.4375 63.625C62.1042 63.3125 61.8958 62.9375 61.8125 62.5C61.8542 61.6458 61.9375 59.4271 62.0625 55.8438C62.1875 52.2396 62.3333 49.6042 62.5 47.9375ZM62.9375 42.3438C63.5 42.3438 63.9688 42.5938 64.3438 43.0938C64.7188 43.5729 64.9062 44.125 64.9062 44.75C64.9062 45.2083 64.7917 45.5833 64.5625 45.875C64.3542 46.1458 64.0625 46.2812 63.6875 46.2812C63.1042 46.2812 62.6458 46.0417 62.3125 45.5625C61.9792 45.0833 61.8125 44.5208 61.8125 43.875C61.8125 43.4167 61.9062 43.0521 62.0938 42.7812C62.3021 42.4896 62.5833 42.3438 62.9375 42.3438ZM68.1562 42.5625L69.5938 42.875L70.2812 63.0938C70.0938 63.7396 69.7292 64.0625 69.1875 64.0625C68.8125 64.0625 68.4479 63.9167 68.0938 63.625C67.7604 63.3125 67.5521 62.9375 67.4688 62.5L68.1562 42.5625ZM73.5312 42.5625L74.9688 42.875L75.6562 63.0938C75.4688 63.7396 75.1042 64.0625 74.5625 64.0625C74.1875 64.0625 73.8229 63.9167 73.4688 63.625C73.1354 63.3125 72.9271 62.9375 72.8438 62.5L73.5312 42.5625ZM87.8438 48.9375L87.5312 50.1875C85.5104 49.3542 83.9375 48.9375 82.8125 48.9375C81.8125 48.9375 81.1042 49.0938 80.6875 49.4062C80.2917 49.6979 80.0938 50.3333 80.0938 51.3125C80.0938 52.1042 80.375 52.7604 80.9375 53.2812C81.5208 53.8021 82.2188 54.2188 83.0312 54.5312C83.8438 54.8229 84.6562 55.1458 85.4688 55.5C86.3021 55.8333 87 56.3333 87.5625 57C88.1458 57.6667 88.4375 58.4896 88.4375 59.4688C88.4375 60.8021 87.9479 61.9688 86.9688 62.9688C85.9896 63.9688 84.7188 64.4792 83.1562 64.5C82.0104 64.5 80.9375 64.2604 79.9375 63.7812C78.9375 63.3021 78.1458 62.6979 77.5625 61.9688L78.4688 61.0312C78.7188 61.1354 79.0833 61.3021 79.5625 61.5312C80.0625 61.7604 80.4167 61.9167 80.625 62C80.8333 62.0625 81.1354 62.1354 81.5312 62.2188C81.9479 62.3021 82.3854 62.3438 82.8438 62.3438C83.8229 62.3438 84.625 62.125 85.25 61.6875C85.875 61.25 86.1875 60.6354 86.1875 59.8438C86.1875 59.3229 86.0417 58.8854 85.75 58.5312C85.4583 58.1562 85.0729 57.8542 84.5938 57.625C84.1146 57.3958 83.5833 57.1771 83 56.9688C82.4375 56.7604 81.8646 56.5312 81.2812 56.2812C80.7188 56.0104 80.1979 55.6979 79.7188 55.3438C79.2396 54.9688 78.8542 54.4688 78.5625 53.8438C78.2708 53.2188 78.125 52.4792 78.125 51.625C78.125 50.375 78.4583 49.3333 79.125 48.5C79.8125 47.6458 80.7708 47.2188 82 47.2188C82.4792 47.2188 83.0208 47.2917 83.625 47.4375C84.2292 47.5833 84.7083 47.7188 85.0625 47.8438C85.4167 47.9688 85.9375 48.1771 86.625 48.4688C87.3333 48.7396 87.7396 48.8958 87.8438 48.9375Z" fill="#D4A373"/>
</svg>
